<?xml version="1.0" encoding="UTF-8"?>
<svg width="571px" height="178px" viewBox="0 0 571 178" version="1.1" xmlns="http://www.w3.org/2000/svg" xmlns:xlink="http://www.w3.org/1999/xlink">
    <title>Group</title>
    <g id="Page-1" stroke="none" stroke-width="1" fill="none" fill-rule="evenodd">
        <g id="Group">
            <polyline id="Fill-1" fill="#FFFFFF" points="56.354 176.924 0 176.924 0 33.611 167.073 33.611 167.073 67.129 56.354 67.129 56.354 95.902 114.664 95.902 114.664 129.589 56.354 129.589 56.354 176.924"></polyline>
            <g id="Group-5" transform="translate(167.000000, 0.000000)">
                <path d="M189.299,79.879 C184.111,65.276 174.218,53.913 159.612,45.793 C145.005,37.672 127.062,33.611 105.771,33.611 L56.426,33.611 L56.426,67.188 L100.241,67.188 C109.25,67.188 116.96,69.235 123.375,73.329 C129.788,77.422 134.292,83.021 136.888,90.118 C138.526,94.622 139.347,99.671 139.347,105.267 C139.347,110.727 138.526,115.709 136.888,120.211 C134.292,127.447 129.823,133.11 123.477,137.206 C117.132,141.298 109.383,143.349 100.241,143.349 L56.426,143.349 L56.426,67.188 L0.073,67.188 L0.073,176.924 L105.771,176.924 C127.196,176.924 145.178,172.9 159.716,164.844 C174.253,156.793 184.111,145.463 189.299,130.856 C192.028,122.944 193.394,114.413 193.394,105.267 C193.394,96.125 192.028,87.659 189.299,79.879" id="Fill-2" fill="#FFFFFF"></path>
                <polygon id="Fill-4" fill="#D41E3D" points="174.612 33.612 227.021 33.612 227.021 0.04 174.612 0.04"></polygon>
            </g>
            <path d="M501.493,139.307 C493.653,143.481 484.284,145.722 473.899,146.231 C463.207,145.822 453.942,143.583 445.999,139.407 C437.242,134.725 431.336,128.207 428.18,119.756 C426.653,115.276 425.94,110.388 425.94,105.297 C425.94,100.002 426.653,95.114 428.18,90.736 C431.336,82.284 437.344,75.768 446.202,71.187 C454.145,67.011 463.411,64.772 473.899,64.262 C484.488,64.669 493.754,66.909 501.696,71.084 C509.13,75.056 514.527,80.35 517.887,87.07 L570.631,87.07 C570.224,85.339 569.715,83.609 569.105,81.98 C563.403,66.095 552.201,53.876 535.095,45.221 C518.803,36.973 498.336,32.799 473.899,32.492 C449.257,32.799 428.893,37.075 412.703,45.322 C395.697,53.876 384.293,66.095 378.591,81.98 C376.046,89.108 374.722,96.846 374.722,105.297 C374.722,113.647 376.046,121.386 378.591,128.513 C384.293,144.398 395.596,156.616 412.601,165.272 C428.893,173.52 449.36,177.694 473.899,177.999 C498.439,177.694 518.803,173.417 534.993,165.169 C551.998,156.616 563.403,144.398 569.105,128.513 C569.715,126.884 570.224,125.255 570.631,123.524 L517.784,123.524 C514.425,130.142 508.926,135.438 501.493,139.307" id="Fill-6" fill="#FFFFFF"></path>
        </g>
    </g>
</svg>